<svg width="19" height="19" viewBox="0 0 19 19" fill="none" xmlns="http://www.w3.org/2000/svg">
<path d="M19 9.5C19 14.7467 14.7467 19 9.5 19C4.25329 19 0 14.7467 0 9.5C0 4.25329 4.25329 0 9.5 0C14.7467 0 19 4.25329 19 9.5Z" fill="#D86060"/>
<path d="M11.9886 5.00125C12.369 4.65114 12.9509 4.6702 13.3146 5.03797L13.8612 5.59056C14.2249 5.95833 14.2438 6.54664 13.8975 6.93126C13.382 7.50384 12.5668 8.39398 11.5557 9.44596C12.6149 10.545 13.4684 11.4767 14.0015 12.0687C14.3478 12.4534 14.3289 13.0417 13.9652 13.4094L13.4186 13.962C13.0549 14.3298 12.473 14.3489 12.0926 13.9988C11.5073 13.46 10.5864 12.5976 9.5 11.5273C8.41362 12.5976 7.49272 13.46 6.90738 13.9988C6.52697 14.3489 5.9451 14.3298 5.58135 13.962L5.03482 13.4094C4.67108 13.0417 4.65222 12.4534 4.9985 12.0687C5.53155 11.4767 6.38509 10.545 7.44425 9.44596C6.43321 8.39397 5.61801 7.50384 5.10252 6.93126C4.75624 6.54664 4.7751 5.95833 5.13884 5.59056L5.68537 5.03797C6.04912 4.6702 6.63099 4.65114 7.0114 5.00125C7.57796 5.52269 8.45891 6.34744 9.5 7.37032C10.5411 6.34744 11.422 5.52269 11.9886 5.00125Z" fill="white"/>
</svg>
